<?xml version="1.0" encoding="UTF-8"?>
<svg xmlns="http://www.w3.org/2000/svg" version="1.1" viewBox="0 0 24 24">
  <defs>
    <style>
      .cls-1 {
        fill: #aaa;
      }

      .cls-2 {
        fill: #fefefe;
      }

      .cls-3 {
        fill: #8fbffa;
      }

      .cls-3, .cls-4 {
        fill-rule: evenodd;
      }

      .cls-5 {
        fill: #dfdfdf;
      }

      .cls-6 {
        fill: #afafaf;
      }

      .cls-7 {
        fill: #ababab;
      }

      .cls-8 {
        fill: #adadad;
      }

      .cls-9 {
        fill: #aeaeae;
      }

      .cls-10 {
        display: none;
      }

      .cls-11 {
        fill: #b0b0b0;
      }

      .cls-12 {
        fill: #acacac;
      }

      .cls-13 {
        fill: #d7d7d7;
      }

      .cls-4 {
        fill: #2859c5;
      }
    </style>
  </defs>
  <!-- Generator: Adobe Illustrator 28.7.1, SVG Export Plug-In . SVG Version: 1.2.0 Build 142)  -->
  <g>
    <g id="User-Arrows-Account-Switch--Streamline-Sharp.svg">
      <g id="user-arrows-account-switch--user-arrows-account-switch-reload" class="cls-10">
        <path id="Union" class="cls-4" d="M12,13c1.8,0,3.2-1.5,3.2-3.2s-1.5-3.2-3.2-3.2-3.2,1.5-3.2,3.2,1.5,3.2,3.2,3.2ZM18,15.5h.2c-1.3,2.3-3.7,3.7-6.3,3.7-2.6,0-5-1.4-6.3-3.6h.2c1.9-1,4-1.5,6-1.5,2.2,0,4.2.5,6,1.4Z"/>
        <path id="Union_2" class="cls-3" d="M12,.8C5.8.8.8,5.8.8,12s5,11.2,11.2,11.2,11.2-5,11.2-11.2,0-1.5-.2-2.2l-2.5.5c1,4.7-2.1,9.4-6.8,10.3-4.7,1-9.4-2.1-10.3-6.8-1-4.7,2.1-9.4,6.8-10.3.6-.1,1.2-.2,1.7-.2,2,0,3.9.7,5.4,1.9l-1.4,1.4,1,1h4.5V3l-1-1-1.3,1.3c-2-1.7-4.6-2.6-7.2-2.6Z"/>
      </g>
      <g>
        <path class="cls-5" d="M24.3-.2v11.1c-.4.7-1.1,1.2-1.7,1.6-2,1.2-4.1,2.3-6.4,2.7-.5,0-1.1.4-1.7,0,0-.2.1-.3.2-.5.1-.3.4-.2.6-.4.1-.2.3-.5.5-.6.3-.1.2-.5.3-.6.5-.5.7-1.1.6-1.8,0-.2,0-.3,0-.5,0-.4.2-.8,0-1.2,0-.6-.2-1.1-.7-1.6,0-.7-.7-.7-1-1.1-1.4-1.5-3.9-1.5-5.6-.5-.2.1-.4.3-.5.5,0,.1-.2.2-.3.3-.5,0-.6.4-.7.8-.5.4-.7,1-.7,1.6-.3.5,0,1.1,0,1.6,0,.7.2,1.3.6,1.9,0,.2,0,.5.3.7.3.1.5.3.6.6.1.1.2.2.4.3.1.1.4.2.4.5,0,.2-.2.3-.5.3-1.6-.1-3.1-.7-4.6-1.3-1.4-.6-2.7-1.4-3.9-2.3-.4-.3-.7-.6-.9-1.1,0-3.4,0-6.9,0-10.3,0-.4,0-.5.5-.5,7.9,0,15.8,0,23.7,0,.1,0,.3,0,.4,0Z"/>
        <path class="cls-12" d="M21.8,24.3H2.3c-.3-.2-.3-.5-.3-.7,0-2,.7-3.7,1.9-5.3,0,0,.1-.2.2-.2.3-.3.5-.6.8-.9.1,0,.3-.2.4-.3.3-.3.7-.6,1.1-.8.2,0,.4-.2.6-.3.4-.2.8-.4,1.2-.5.1,0,.3,0,.4-.1.4,0,.7,0,1-.2.2,0,.4-.1.6-.1.3.1.7.1,1,.1.9,0,1.8,0,2.7,0,0,0,.2,0,.3,0,.4.1.8.3,1.3.2.2,0,.3,0,.5,0,.4.1.8.3,1.2.5.2,0,.4.2.6.3.4.2.8.5,1.1.8.1.1.3.2.4.3,1.8,1.7,2.7,3.8,2.8,6.3,0,.3,0,.5-.3.7Z"/>
        <path class="cls-13" d="M6.5,16.4c-.4.2-.7.4-1,.7,0,.2-.2.3-.4.3-.3.2-.5.5-.7.8,0,.1,0,.2-.2.2-1,1.1-1.5,2.5-1.7,4-.1.6-.1,1.2-.1,1.9H-.2c0-.1,0-.3,0-.4,0-4.2,0-8.5,0-12.7,0-.1,0-.3,0-.4.2,0,.3.2.5.3,1.9,1.7,4.2,2.8,6.6,3.6.6.2,1.3.3,1.9.5.2,0,.4.1.6,0,.2,0,.3,0,.3.2-.3.1-.7.2-1,.3,0,.2-.2.2-.4.1-.4,0-.8.2-1.1.5-.2.1-.3.3-.6.3Z"/>
        <path class="cls-13" d="M18.6,17.1c-.3-.3-.6-.6-1-.7-.3,0-.4-.2-.6-.3-.3-.2-.7-.4-1.1-.5-.2,0-.3,0-.4-.1-.4-.2-.8-.1-1.2-.3,0-.3.2-.3.4,0,.3,0,.7,0,1,0,1.9-.4,3.7-1,5.3-1.9.9-.5,1.8-1,2.6-1.7.2-.2.5-.4.8-.5,0,4.3,0,8.7,0,13,0,.3,0,.4-.4.4-.7,0-1.5,0-2.2,0,0-2-.4-3.8-1.5-5.4-.4-.5-.8-1-1.3-1.4-.2,0-.3-.1-.4-.3Z"/>
        <path class="cls-2" d="M-.2,10.7c0,4.5,0,9.1,0,13.6-.2,0-.1,0-.1-.2,0-8.1,0-16.2,0-24.2,0-.4.2-.3.4-.3,7,0,14,0,21,0s2.1,0,3.1,0c0,0,.2,0,.2,0-7.9,0-15.8,0-23.7,0q-.9,0-.9.9c0,3.4,0,6.7,0,10.1Z"/>
        <path class="cls-11" d="M14,15.2c-1.3.2-2.6.2-3.9,0-.4-.2-.7-.4-1.1-.5-.1,0-.2-.2-.3-.3-.1-.3-.4-.4-.6-.7,0-.2-.3-.4-.4-.5-.4-.6-.6-1.3-.7-2,0-.6.1-1.2,0-1.8.1-.6.3-1.2.7-1.6.4-.3.7-.7,1-1.1,1.6-1.5,4.5-1.6,6.2-.3.1,0,.2.2.3.2.3.4.6.8,1,1.1.4.5.6,1,.7,1.6,0,.4,0,.8,0,1.2,0,.2,0,.4,0,.6,0,.7-.3,1.4-.7,2-.2.1-.4.2-.5.5-.1.3-.4.4-.6.7-.1.2-.3.3-.5.4-.3.1-.7.2-.9.4Z"/>
        <path class="cls-11" d="M8.8,6.6c-.3.4-.5.9-1,1.1.2-.5.6-.8,1-1.1Z"/>
        <path class="cls-11" d="M16.4,7.7c-.5-.2-.8-.7-1-1.1.4.3.8.7,1,1.1Z"/>
        <path class="cls-6" d="M9,14.7c.5,0,.8.2,1.1.5-.1,0-.3,0-.4,0-.1,0-.2-.1-.3-.2-.1-.1-.3-.2-.4-.3Z"/>
        <path class="cls-8" d="M7,9.4c.2.6,0,1.2,0,1.8,0-.6,0-1.2,0-1.8Z"/>
        <path class="cls-6" d="M14,15.2c.2-.4.5-.5.9-.4-.1,0-.2.2-.3.3-.1,0-.3,0-.4,0,0,0-.2,0-.2,0Z"/>
        <path class="cls-6" d="M17.1,10.6c0-.4-.2-.8,0-1.2,0,.4.2.9.1,1.3,0,0,0,0-.1-.1Z"/>
        <path class="cls-6" d="M7.6,13.2c.3,0,.5.2.5.5,0,0,0,.1-.1.1-.2-.2-.3-.4-.4-.6Z"/>
        <path class="cls-6" d="M15.9,13.7c0-.3.2-.5.5-.5-.1.2-.3.4-.4.6,0,0-.1,0,0,0Z"/>
        <path class="cls-9" d="M8.1,13.8s0,0,.1-.1c.1.3.5.4.5.7-.2-.2-.4-.4-.6-.6Z"/>
        <path class="cls-9" d="M15.9,13.7s0,0,0,0c-.1.3-.4.5-.6.6,0-.4.4-.5.5-.7Z"/>
        <path class="cls-1" d="M17.1,10.6s0,0,.1.1c0,.2,0,.3,0,.5-.1-.2,0-.4,0-.6Z"/>
        <path class="cls-1" d="M6.5,16.4c.2-.1.4-.2.6-.3-.2.2-.3.5-.6.3Z"/>
        <path class="cls-1" d="M17,16.1c.2,0,.4.2.6.3-.3.2-.5-.1-.6-.3Z"/>
        <path class="cls-7" d="M8.3,15.6c.1,0,.3,0,.4-.1,0,.4-.2.3-.4.1Z"/>
        <path class="cls-7" d="M15.4,15.5c.1,0,.3,0,.4.1-.2.2-.4.3-.4-.1Z"/>
        <path class="cls-7" d="M5.1,17.5c.1-.1.3-.2.4-.3,0,.3-.2.3-.4.3Z"/>
        <path class="cls-7" d="M18.6,17.1c.1.1.3.2.4.3-.2,0-.4,0-.4-.3Z"/>
        <path class="cls-7" d="M4.2,18.5c0,0,.1-.1.2-.2,0,.2,0,.2-.2.2Z"/>
      </g>
    </g>
  </g>
</svg>